HIERARCHY
ROOT Hips
{
	OFFSET 0.000000 0.000000 0.255553
	CHANNELS 6 Xposition Yposition Zposition Xrotation Yrotation Zrotation
	JOINT Spine
	{
		OFFSET 0.000000 0.003143 0.025413
		CHANNELS 6 Xposition Yposition Zposition Xrotation Yrotation Zrotation
		JOINT Spine1
		{
			OFFSET -0.000003 0.003642 0.029822
			CHANNELS 6 Xposition Yposition Zposition Xrotation Yrotation Zrotation
			JOINT Spine2
			{
				OFFSET -0.000003 0.004165 0.034213
				CHANNELS 6 Xposition Yposition Zposition Xrotation Yrotation Zrotation
				JOINT Neck
				{
					OFFSET -0.000003 -0.002031 0.038496
					CHANNELS 6 Xposition Yposition Zposition Xrotation Yrotation Zrotation
					JOINT Head
					{
						OFFSET -0.000002 -0.008047 0.026433
						CHANNELS 6 Xposition Yposition Zposition Xrotation Yrotation Zrotation
						JOINT HeadTop_End
						{
							OFFSET -0.000004 -0.016995 0.047311
							CHANNELS 6 Xposition Yposition Zposition Xrotation Yrotation Zrotation
							End Site
							{
								OFFSET -0.000004 0.000000 0.050271
							}
						}
					}
				}
				JOINT LeftShoulder
				{
					OFFSET 0.015634 -0.001807 0.023332
					CHANNELS 6 Xposition Yposition Zposition Xrotation Yrotation Zrotation
					JOINT LeftArm
					{
						OFFSET 0.032408 0.006661 -0.000682
						CHANNELS 6 Xposition Yposition Zposition Xrotation Yrotation Zrotation
						JOINT LeftForeArm
						{
							OFFSET 0.070179 0.000000 0.000000
							CHANNELS 6 Xposition Yposition Zposition Xrotation Yrotation Zrotation
							JOINT LeftHand
							{
								OFFSET 0.070717 0.000000 0.000000
								CHANNELS 6 Xposition Yposition Zposition Xrotation Yrotation Zrotation
								JOINT LeftHandThumb1
								{
									OFFSET 0.009703 -0.007690 -0.005550
									CHANNELS 6 Xposition Yposition Zposition Xrotation Yrotation Zrotation
									JOINT LeftHandThumb2
									{
										OFFSET 0.009412 -0.005434 -0.005434
										CHANNELS 6 Xposition Yposition Zposition Xrotation Yrotation Zrotation
										JOINT LeftHandThumb3
										{
											OFFSET 0.008692 -0.005019 -0.005019
											CHANNELS 6 Xposition Yposition Zposition Xrotation Yrotation Zrotation
											JOINT LeftHandThumb4
											{
												OFFSET 0.006862 -0.003962 -0.003962
												CHANNELS 6 Xposition Yposition Zposition Xrotation Yrotation Zrotation
												End Site
												{
													OFFSET 0.006147 -0.005031 -0.003920
												}
											}
										}
									}
								}
								JOINT LeftHandIndex1
								{
									OFFSET 0.031413 -0.007227 -0.000594
									CHANNELS 6 Xposition Yposition Zposition Xrotation Yrotation Zrotation
									JOINT LeftHandIndex2
									{
										OFFSET 0.009967 0.000000 0.000000
										CHANNELS 6 Xposition Yposition Zposition Xrotation Yrotation Zrotation
										JOINT LeftHandIndex3
										{
											OFFSET 0.008746 0.000000 0.000000
											CHANNELS 6 Xposition Yposition Zposition Xrotation Yrotation Zrotation
											JOINT LeftHandIndex4
											{
												OFFSET 0.007882 0.000000 0.000000
												CHANNELS 6 Xposition Yposition Zposition Xrotation Yrotation Zrotation
												End Site
												{
													OFFSET 0.007882 -0.000000 0.000000
												}
											}
										}
									}
								}
								JOINT LeftHandMiddle1
								{
									OFFSET 0.032716 0.000000 0.000000
									CHANNELS 6 Xposition Yposition Zposition Xrotation Yrotation Zrotation
									JOINT LeftHandMiddle2
									{
										OFFSET 0.009255 0.000000 0.000000
										CHANNELS 6 Xposition Yposition Zposition Xrotation Yrotation Zrotation
										JOINT LeftHandMiddle3
										{
											OFFSET 0.008860 0.000000 0.000000
											CHANNELS 6 Xposition Yposition Zposition Xrotation Yrotation Zrotation
											JOINT LeftHandMiddle4
											{
												OFFSET 0.009424 0.000000 0.000000
												CHANNELS 6 Xposition Yposition Zposition Xrotation Yrotation Zrotation
												End Site
												{
													OFFSET 0.009424 0.000012 0.000000
												}
											}
										}
									}
								}
								JOINT LeftHandRing1
								{
									OFFSET 0.031107 0.005676 0.000026
									CHANNELS 6 Xposition Yposition Zposition Xrotation Yrotation Zrotation
									JOINT LeftHandRing2
									{
										OFFSET 0.009222 0.000000 0.000000
										CHANNELS 6 Xposition Yposition Zposition Xrotation Yrotation Zrotation
										JOINT LeftHandRing3
										{
											OFFSET 0.008470 0.000000 0.000000
											CHANNELS 6 Xposition Yposition Zposition Xrotation Yrotation Zrotation
											JOINT LeftHandRing4
											{
												OFFSET 0.009373 0.000000 0.000000
												CHANNELS 6 Xposition Yposition Zposition Xrotation Yrotation Zrotation
												End Site
												{
													OFFSET 0.009373 -0.000014 -0.000000
												}
											}
										}
									}
								}
								JOINT LeftHandPinky1
								{
									OFFSET 0.027934 0.012102 -0.000579
									CHANNELS 6 Xposition Yposition Zposition Xrotation Yrotation Zrotation
									JOINT LeftHandPinky2
									{
										OFFSET 0.010593 0.000000 0.000000
										CHANNELS 6 Xposition Yposition Zposition Xrotation Yrotation Zrotation
										JOINT LeftHandPinky3
										{
											OFFSET 0.006645 0.000000 0.000000
											CHANNELS 6 Xposition Yposition Zposition Xrotation Yrotation Zrotation
											JOINT LeftHandPinky4
											{
												OFFSET 0.007488 0.000000 0.000000
												CHANNELS 6 Xposition Yposition Zposition Xrotation Yrotation Zrotation
												End Site
												{
													OFFSET 0.007488 0.000009 0.000000
												}
											}
										}
									}
								}
							}
						}
					}
				}
				JOINT RightShoulder
				{
					OFFSET -0.015638 -0.001807 0.023329
					CHANNELS 6 Xposition Yposition Zposition Xrotation Yrotation Zrotation
					JOINT RightArm
					{
						OFFSET -0.032408 0.006661 -0.000680
						CHANNELS 6 Xposition Yposition Zposition Xrotation Yrotation Zrotation
						JOINT RightForeArm
						{
							OFFSET -0.070179 0.000000 0.000000
							CHANNELS 6 Xposition Yposition Zposition Xrotation Yrotation Zrotation
							JOINT RightHand
							{
								OFFSET -0.070717 0.000000 0.000000
								CHANNELS 6 Xposition Yposition Zposition Xrotation Yrotation Zrotation
								JOINT RightHandThumb1
								{
									OFFSET -0.009703 -0.007690 -0.005550
									CHANNELS 6 Xposition Yposition Zposition Xrotation Yrotation Zrotation
									JOINT RightHandThumb2
									{
										OFFSET -0.009412 -0.005434 -0.005434
										CHANNELS 6 Xposition Yposition Zposition Xrotation Yrotation Zrotation
										JOINT RightHandThumb3
										{
											OFFSET -0.008692 -0.005019 -0.005019
											CHANNELS 6 Xposition Yposition Zposition Xrotation Yrotation Zrotation
											JOINT RightHandThumb4
											{
												OFFSET -0.006862 -0.003962 -0.003962
												CHANNELS 6 Xposition Yposition Zposition Xrotation Yrotation Zrotation
												End Site
												{
													OFFSET -0.006143 -0.005035 -0.003922
												}
											}
										}
									}
								}
								JOINT RightHandIndex1
								{
									OFFSET -0.031413 -0.007227 -0.000594
									CHANNELS 6 Xposition Yposition Zposition Xrotation Yrotation Zrotation
									JOINT RightHandIndex2
									{
										OFFSET -0.009967 0.000000 0.000000
										CHANNELS 6 Xposition Yposition Zposition Xrotation Yrotation Zrotation
										JOINT RightHandIndex3
										{
											OFFSET -0.008746 0.000000 0.000000
											CHANNELS 6 Xposition Yposition Zposition Xrotation Yrotation Zrotation
											JOINT RightHandIndex4
											{
												OFFSET -0.007882 0.000000 0.000000
												CHANNELS 6 Xposition Yposition Zposition Xrotation Yrotation Zrotation
												End Site
												{
													OFFSET -0.007882 0.000022 0.000001
												}
											}
										}
									}
								}
								JOINT RightHandMiddle1
								{
									OFFSET -0.032716 0.000000 0.000000
									CHANNELS 6 Xposition Yposition Zposition Xrotation Yrotation Zrotation
									JOINT RightHandMiddle2
									{
										OFFSET -0.009255 0.000000 0.000000
										CHANNELS 6 Xposition Yposition Zposition Xrotation Yrotation Zrotation
										JOINT RightHandMiddle3
										{
											OFFSET -0.008860 0.000000 0.000000
											CHANNELS 6 Xposition Yposition Zposition Xrotation Yrotation Zrotation
											JOINT RightHandMiddle4
											{
												OFFSET -0.009424 0.000000 0.000000
												CHANNELS 6 Xposition Yposition Zposition Xrotation Yrotation Zrotation
												End Site
												{
													OFFSET -0.009424 -0.000032 0.000001
												}
											}
										}
									}
								}
								JOINT RightHandRing1
								{
									OFFSET -0.031107 0.005676 0.000026
									CHANNELS 6 Xposition Yposition Zposition Xrotation Yrotation Zrotation
									JOINT RightHandRing2
									{
										OFFSET -0.009222 0.000000 0.000000
										CHANNELS 6 Xposition Yposition Zposition Xrotation Yrotation Zrotation
										JOINT RightHandRing3
										{
											OFFSET -0.008470 0.000000 0.000000
											CHANNELS 6 Xposition Yposition Zposition Xrotation Yrotation Zrotation
											JOINT RightHandRing4
											{
												OFFSET -0.009373 0.000000 0.000000
												CHANNELS 6 Xposition Yposition Zposition Xrotation Yrotation Zrotation
												End Site
												{
													OFFSET -0.009373 -0.000006 0.000001
												}
											}
										}
									}
								}
								JOINT RightHandPinky1
								{
									OFFSET -0.027934 0.012102 -0.000579
									CHANNELS 6 Xposition Yposition Zposition Xrotation Yrotation Zrotation
									JOINT RightHandPinky2
									{
										OFFSET -0.010593 0.000000 0.000000
										CHANNELS 6 Xposition Yposition Zposition Xrotation Yrotation Zrotation
										JOINT RightHandPinky3
										{
											OFFSET -0.006645 0.000000 0.000000
											CHANNELS 6 Xposition Yposition Zposition Xrotation Yrotation Zrotation
											JOINT RightHandPinky4
											{
												OFFSET -0.007488 0.000000 0.000000
												CHANNELS 6 Xposition Yposition Zposition Xrotation Yrotation Zrotation
												End Site
												{
													OFFSET -0.007488 0.000033 0.000002
												}
											}
										}
									}
								}
							}
						}
					}
				}
			}
		}
	}
	JOINT LeftUpLeg
	{
		OFFSET 0.023366 0.000142 -0.017046
		CHANNELS 6 Xposition Yposition Zposition Xrotation Yrotation Zrotation
		JOINT LeftLeg
		{
			OFFSET 0.000627 0.001320 -0.103959
			CHANNELS 6 Xposition Yposition Zposition Xrotation Yrotation Zrotation
			JOINT LeftFoot
			{
				OFFSET -0.000627 0.005273 -0.107679
				CHANNELS 6 Xposition Yposition Zposition Xrotation Yrotation Zrotation
				JOINT LeftToeBase
				{
					OFFSET 0.000957 -0.035766 -0.018460
					CHANNELS 6 Xposition Yposition Zposition Xrotation Yrotation Zrotation
					JOINT LeftToe_End
					{
						OFFSET -0.000364 -0.025602 -0.000449
						CHANNELS 6 Xposition Yposition Zposition Xrotation Yrotation Zrotation
						End Site
						{
							OFFSET -0.000364 -0.025602 -0.000449
						}
					}
				}
			}
		}
	}
	JOINT RightUpLeg
	{
		OFFSET -0.023366 0.000142 -0.017046
		CHANNELS 6 Xposition Yposition Zposition Xrotation Yrotation Zrotation
		JOINT RightLeg
		{
			OFFSET -0.000627 0.001317 -0.103959
			CHANNELS 6 Xposition Yposition Zposition Xrotation Yrotation Zrotation
			JOINT RightFoot
			{
				OFFSET 0.000627 0.005277 -0.107678
				CHANNELS 6 Xposition Yposition Zposition Xrotation Yrotation Zrotation
				JOINT RightToeBase
				{
					OFFSET -0.000957 -0.035766 -0.018460
					CHANNELS 6 Xposition Yposition Zposition Xrotation Yrotation Zrotation
					JOINT RightToe_End
					{
						OFFSET 0.000363 -0.025602 -0.000448
						CHANNELS 6 Xposition Yposition Zposition Xrotation Yrotation Zrotation
						End Site
						{
							OFFSET 0.000363 -0.025602 -0.000448
						}
					}
				}
			}
		}
	}
}
MOTION
Frames: 3
Frame Time: 0.033333
0.228714 1.038054 -6.673724 -3.329288 2.950208 -43.022163 0.000001 0.003142 0.025418 5.734909 1.210856 4.564913 -0.000003 0.003643 0.029822 11.351651 3.045641 9.050480 -0.000003 0.004165 0.034214 11.351646 3.045642 9.050486 -0.000004 -0.002032 0.038498 -4.307644 -0.206261 -1.272960 -0.000002 -0.008040 0.026439 -6.403634 0.353429 20.438178 -0.000003 -0.016991 0.047327 -0.000003 0.000000 -0.000000 0.015629 -0.001809 0.023331 1.488774 7.878826 -0.702443 0.032408 0.006660 -0.000682 -19.003803 63.177925 5.312479 0.070180 0.000000 -0.000000 5.485686 -3.999046 -47.677886 0.070717 -0.000001 -0.000000 16.484344 -18.792934 0.966710 0.009716 -0.007694 -0.005561 8.700680 5.479594 4.836283 0.009436 -0.005431 -0.005428 -0.334885 -0.783664 0.032583 0.008694 -0.005019 -0.005029 -0.000000 -0.000004 -0.000010 0.006866 -0.003958 -0.003944 0.000002 0.000005 -0.000002 0.031423 -0.007227 -0.000585 -0.438469 3.780139 -6.996232 0.009967 -0.000000 -0.000001 -0.203597 16.417290 0.838435 0.008745 0.000000 -0.000000 -0.000009 -0.000003 -0.000004 0.007882 0.000000 0.000000 0.000004 0.000001 0.000001 0.032721 -0.000000 0.000009 -0.550027 14.328181 9.997080 0.009254 0.000000 0.000000 0.172154 21.872453 -1.686892 0.008860 0.000000 -0.000000 0.000004 0.000001 0.000003 0.009425 0.000000 -0.000000 -0.000000 0.000001 0.000003 0.031136 0.005684 0.000043 -6.293548 30.179485 17.300806 0.009223 0.000000 0.000000 1.117635 31.971436 -3.197872 0.008469 0.000000 0.000000 0.000001 0.000002 -0.000003 0.009372 0.000000 0.000000 0.000005 0.000001 0.000001 0.027940 0.012102 -0.000566 -8.347041 32.941347 22.209397 0.010593 0.000000 -0.000000 4.024544 39.133620 -7.471133 0.006644 0.000000 -0.000000 -0.000003 0.000001 0.000002 0.007488 0.000000 0.000001 0.000002 0.000000 0.000001 -0.015640 -0.001811 0.023322 3.035799 -9.656825 9.598520 -0.032408 0.006661 -0.000679 -34.815947 -52.531282 -42.508700 -0.070179 -0.000000 0.000000 -1.273513 -5.982202 42.140126 -0.070717 -0.000000 0.000000 8.749925 -11.400761 12.574368 -0.009695 -0.007694 -0.005560 -8.863086 0.382341 -4.903243 -0.009390 -0.005439 -0.005418 8.844689 2.697901 -19.214594 -0.008694 -0.005012 -0.005007 0.000008 0.000012 0.000004 -0.006837 -0.003957 -0.003962 0.000002 0.000000 0.000004 -0.031411 -0.007229 -0.000574 -1.181689 -4.524243 -1.219290 -0.009967 0.000000 0.000000 -0.197682 -16.939303 -1.166166 -0.008745 0.000000 0.000000 -0.000002 0.000000 -0.000001 -0.007883 -0.000000 -0.000000 -0.000000 0.000000 -0.000003 -0.032722 0.000001 -0.000007 -1.319419 -12.714998 -2.976948 -0.009255 0.000000 0.000000 0.410677 -30.562067 2.106142 -0.008860 0.000000 -0.000000 -0.000001 0.000003 0.000001 -0.009424 0.000000 -0.000000 -0.000003 0.000002 -0.000001 -0.031120 0.005677 0.000028 -0.521678 -21.572739 -7.965767 -0.009222 -0.000000 0.000000 1.887052 -37.336635 4.736455 -0.008470 0.000000 -0.000000 -0.000000 -0.000006 -0.000010 -0.009373 0.000000 0.000000 -0.000000 0.000001 -0.000001 -0.027933 0.012103 -0.000582 -1.031169 -23.925640 -11.011551 -0.010593 -0.000000 -0.000000 5.353054 -40.622810 10.395724 -0.006645 0.000000 -0.000001 -0.000004 0.000009 0.000012 -0.007488 -0.000000 -0.000000 -0.000001 -0.000002 -0.000000 0.023370 0.000141 -0.017048 -25.528952 -13.730395 6.010778 0.000627 0.001320 -0.103959 34.889037 0.198807 -14.262538 -0.000627 0.005273 -0.107678 -5.410281 7.694368 0.767796 0.000957 -0.035766 -0.018460 -2.364145 -0.801692 -3.217318 -0.000364 -0.025602 -0.000448 -0.000000 -0.000000 0.000004 -0.023367 0.000142 -0.017042 -1.850043 14.818608 -14.092379 -0.000626 0.001317 -0.103959 34.247023 0.395492 -9.081425 0.000626 0.005277 -0.107678 -22.184109 -16.534196 -4.184087 -0.000956 -0.035766 -0.018460 -1.787054 -0.333165 -0.356750 0.000363 -0.025602 -0.000448 -0.000000 0.000000 -0.000001 
0.241430 1.048776 -6.665027 -3.343141 2.965511 -43.046967 0.000001 0.003142 0.025412 5.732357 1.211847 4.567391 -0.000003 0.003642 0.029822 11.346413 3.047131 9.055324 -0.000003 0.004165 0.034214 11.346409 3.047133 9.055320 -0.000003 -0.002033 0.038502 -4.271968 -0.198259 -1.279937 -0.000002 -0.008047 0.026424 -6.368237 0.351000 20.414631 -0.000002 -0.017000 0.047311 0.000001 0.000000 -0.000000 0.015634 -0.001808 0.023353 1.490277 7.874316 -0.724458 0.032408 0.006660 -0.000683 -18.974155 63.163834 5.281367 0.070179 0.000000 -0.000000 5.489322 -3.990833 -47.691813 0.070717 0.000000 0.000000 16.468180 -18.772237 0.969361 0.009706 -0.007697 -0.005535 8.808567 5.526951 4.902125 0.009414 -0.005430 -0.005419 -0.330336 -0.779772 0.030811 0.008689 -0.005019 -0.005027 -0.000002 0.000006 -0.000007 0.006863 -0.003967 -0.003961 0.000002 0.000009 0.000001 0.031426 -0.007230 -0.000597 -0.446771 3.861689 -6.983680 0.009967 -0.000000 -0.000001 -0.202905 16.419268 0.838020 0.008746 0.000000 -0.000000 -0.000004 0.000004 0.000003 0.007882 -0.000000 -0.000000 0.000002 0.000004 0.000000 0.032717 -0.000007 0.000022 -0.553792 14.363944 9.984398 0.009255 -0.000000 0.000000 0.172316 21.881809 -1.687993 0.008861 -0.000000 -0.000000 -0.000004 0.000001 0.000003 0.009424 -0.000000 0.000000 -0.000000 0.000000 -0.000003 0.031134 0.005683 0.000036 -6.296732 30.199115 17.289365 0.009222 0.000000 -0.000000 1.118711 31.985906 -3.199289 0.008470 0.000000 0.000001 -0.000001 0.000003 -0.000003 0.009373 -0.000000 0.000000 0.000001 -0.000001 -0.000001 0.027938 0.012102 -0.000578 -8.357752 32.978872 22.209270 0.010594 -0.000000 0.000000 4.028456 39.152495 -7.473853 0.006644 0.000000 0.000000 0.000001 0.000003 0.000001 0.007488 0.000000 0.000001 -0.000002 -0.000002 -0.000002 -0.015638 -0.001813 0.023323 3.031692 -9.618327 9.575684 -0.032408 0.006661 -0.000679 -34.791700 -52.560092 -42.473463 -0.070180 -0.000000 0.000000 -1.223142 -5.991121 42.156214 -0.070718 -0.000000 -0.000000 8.717569 -11.364583 12.548699 -0.009703 -0.007685 -0.005553 -8.956095 0.470021 -5.023474 -0.009391 -0.005433 -0.005434 8.891885 2.629232 -19.193626 -0.008696 -0.005022 -0.004990 0.000009 0.000014 0.000005 -0.006860 -0.003954 -0.003960 0.000001 0.000004 0.000001 -0.031429 -0.007218 -0.000586 -1.176486 -4.444445 -1.199878 -0.009967 0.000000 -0.000000 -0.194750 -16.903091 -1.169073 -0.008746 0.000000 0.000000 0.000001 0.000001 -0.000004 -0.007882 0.000000 -0.000000 0.000002 0.000000 -0.000003 -0.032729 0.000004 0.000001 -1.321697 -12.755031 -2.990991 -0.009255 -0.000000 -0.000000 0.410698 -30.505585 2.100181 -0.008860 0.000000 0.000000 -0.000001 0.000001 0.000001 -0.009425 -0.000000 0.000000 -0.000001 0.000001 -0.000001 -0.031130 0.005686 0.000043 -0.522856 -21.574343 -7.976408 -0.009223 -0.000000 -0.000000 1.880734 -37.290869 4.728900 -0.008469 0.000000 -0.000001 0.000001 0.000000 -0.000003 -0.009373 0.000000 0.000000 -0.000001 -0.000002 0.000001 -0.027951 0.012108 -0.000572 -1.032616 -23.939910 -11.014772 -0.010593 0.000000 -0.000000 5.360877 -40.643819 10.400885 -0.006645 -0.000000 -0.000001 -0.000005 0.000015 0.000012 -0.007488 0.000000 -0.000001 -0.000000 0.000001 -0.000003 0.023370 0.000143 -0.017047 -25.487049 -13.730603 6.022020 0.000626 0.001321 -0.103958 34.845614 0.195808 -14.242171 -0.000627 0.005273 -0.107678 -5.384912 7.704056 0.767163 0.000957 -0.035766 -0.018460 -2.349760 -0.815629 -3.208912 -0.000364 -0.025602 -0.000448 -0.000000 -0.000000 -0.000000 -0.023367 0.000143 -0.017064 -1.836229 14.826483 -14.097828 -0.000627 0.001317 -0.103958 34.224466 0.388492 -9.048408 0.000627 0.005277 -0.107678 -22.160098 -16.515198 -4.176825 -0.000957 -0.035766 -0.018461 -1.788239 -0.331084 -0.354553 0.000363 -0.025602 -0.000448 0.000000 -0.000000 -0.000002 
0.255951 1.055335 -6.655841 -3.355685 2.984376 -43.064336 0.000000 0.003144 0.025420 5.727132 1.209722 4.568111 -0.000003 0.003642 0.029822 11.336120 3.042343 9.057078 -0.000003 0.004165 0.034214 11.336127 3.042347 9.057090 -0.000005 -0.002024 0.038500 -4.207305 -0.185796 -1.285050 -0.000002 -0.008048 0.026447 -6.291051 0.330503 20.385753 -0.000004 -0.016996 0.047326 0.000000 0.000000 0.000000 0.015629 -0.001804 0.023314 1.492361 7.838248 -0.724509 0.032408 0.006661 -0.000682 -18.952752 63.180821 5.249984 0.070179 0.000000 -0.000000 5.481024 -3.980513 -47.705992 0.070717 -0.000000 -0.000000 16.450922 -18.706814 0.975400 0.009707 -0.007694 -0.005550 8.874712 5.553351 4.959461 0.009420 -0.005432 -0.005405 -0.323826 -0.769212 0.039368 0.008694 -0.005018 -0.005013 -0.000000 -0.000000 -0.000004 0.006857 -0.003962 -0.003949 -0.000002 0.000010 -0.000000 0.031421 -0.007227 -0.000589 -0.449899 3.921346 -6.984981 0.009967 -0.000000 -0.000000 -0.204027 16.464810 0.832756 0.008745 -0.000000 -0.000000 -0.000007 -0.000002 -0.000005 0.007882 -0.000000 -0.000000 -0.000002 0.000001 0.000002 0.032716 -0.000003 0.000019 -0.559165 14.401816 9.958727 0.009255 0.000000 -0.000000 0.173472 21.892160 -1.689410 0.008860 -0.000000 0.000000 0.000000 0.000001 0.000004 0.009424 -0.000000 0.000000 -0.000007 -0.000001 0.000000 0.031142 0.005682 0.000037 -6.311004 30.256427 17.274730 0.009222 -0.000000 -0.000000 1.119608 32.001752 -3.200774 0.008469 -0.000000 0.000000 -0.000001 -0.000000 -0.000003 0.009373 -0.000000 0.000000 -0.000001 -0.000001 -0.000002 0.027940 0.012108 -0.000566 -8.368385 33.017158 22.186710 0.010593 -0.000000 0.000000 4.029289 39.162416 -7.474772 0.006645 -0.000000 0.000000 0.000001 0.000004 0.000003 0.007487 -0.000000 0.000000 -0.000002 -0.000003 0.000001 -0.015641 -0.001804 0.023322 3.023598 -9.544104 9.535100 -0.032408 0.006660 -0.000680 -34.762067 -52.625494 -42.433722 -0.070180 -0.000001 0.000000 -1.116318 -6.019223 42.175250 -0.070716 -0.000000 0.000000 8.643575 -11.290216 12.487754 -0.009684 -0.007692 -0.005564 -8.992520 0.501030 -5.083442 -0.009415 -0.005432 -0.005439 8.927137 2.575104 -19.258325 -0.008710 -0.005021 -0.005005 0.000005 0.000010 0.000009 -0.006855 -0.003958 -0.003945 0.000006 0.000001 0.000005 -0.031403 -0.007226 -0.000576 -1.166880 -4.323674 -1.187125 -0.009967 -0.000000 0.000000 -0.191778 -16.864492 -1.172020 -0.008745 0.000000 -0.000000 0.000001 0.000001 0.000002 -0.007882 0.000000 0.000000 -0.000001 0.000001 -0.000001 -0.032709 0.000001 0.000000 -1.320804 -12.756160 -3.004876 -0.009255 0.000000 0.000000 0.408209 -30.490904 2.098281 -0.008859 -0.000000 -0.000000 0.000001 -0.000002 0.000001 -0.009424 0.000000 -0.000000 -0.000000 -0.000003 -0.000001 -0.031104 0.005679 0.000039 -0.524091 -21.576713 -7.988891 -0.009222 -0.000000 -0.000000 1.881014 -37.286167 4.728559 -0.008469 0.000000 -0.000000 -0.000001 -0.000005 -0.000009 -0.009373 0.000000 0.000000 -0.000002 -0.000002 -0.000000 -0.027928 0.012105 -0.000574 -1.034569 -23.963012 -11.014265 -0.010594 -0.000000 -0.000000 5.374042 -40.678906 10.411443 -0.006644 0.000000 0.000000 -0.000004 0.000016 0.000016 -0.007487 0.000001 -0.000000 -0.000005 0.000000 -0.000002 0.023367 0.000144 -0.017039 -25.447255 -13.726358 6.028961 0.000627 0.001320 -0.103959 34.806224 0.186703 -14.223035 -0.000626 0.005273 -0.107679 -5.362591 7.712770 0.766498 0.000957 -0.035766 -0.018459 -2.332847 -0.852127 -3.205658 -0.000364 -0.025602 -0.000448 -0.000000 0.000000 -0.000001 -0.023367 0.000142 -0.017040 -1.812269 14.830291 -14.102902 -0.000627 0.001317 -0.103959 34.191585 0.380125 -9.025137 0.000627 0.005277 -0.107678 -22.131389 -16.500651 -4.169550 -0.000957 -0.035767 -0.018461 -1.787059 -0.335295 -0.358928 0.000363 -0.025602 -0.000449 0.000000 0.000000 0.000003 
